# xmcd CD database file
#
# Track frame offsets:
#	150
#	11557
#	22467
#	36085
#	45590
#	56020
#	70085
#	79582
#	90455
#	102715
#	115715
#	126985
#	138640
#	152300
#	164850
#	175452
#	187317
#	195507
#	207280
#	219267
#
# Disc length: 3086 seconds
#
# Revision: 3
# Processed by: cddbd v1.5.2PL0 Copyright (c) Steve Scherf et al.
# Submitted via: CDex 1.81
#
DISCID=240c0c14
DTITLE=Various Artist - Country Love (Volume 2)
DYEAR=2000
DGENRE=Country
TTITLE0=Crazy Dreams (Patsy Cline)
TTITLE1=Always Leaving, Always Gone (Kenny Rogers)
TTITLE2=You'll Never Know (Jerry Wallace)
TTITLE3=Ever Since You Went Away (Conway Twitty)
TTITLE4=Blame It On The Times (Willie Nelson)
TTITLE5=The Teddy Bear Song (Barbara Fairchild)
TTITLE6=Kiss An Angel In The Morning (Charley Pride)
TTITLE7=Wishful Thinking (Donna Fargo)
TTITLE8=My Sweet Love Ain't Around (Hank Williams)
TTITLE9=Makin' Believe (Kitty Wells)
TTITLE10=Please Send Me The Pillow You Dream On (Hank Locklin)
TTITLE11=Ease The Want In Me (Billie Jo Spears)
TTITLE12=Wedding Bells (George Jones)
TTITLE13=Finger Prints (Patsy Cline)
TTITLE14=A Man Can Cry (Freddy Fender)
TTITLE15=The End Of The World (Skeeter Davis)
TTITLE16=Always Alone (Johnny Cash)
TTITLE17=Crying (Waylon Jennings)
TTITLE18=Jealousy (Jerry Wallace)
TTITLE19=The Auctioneer (Leroy Van Dyke)
EXTD=YEAR: 2000
EXTT0=
EXTT1=
EXTT2=
EXTT3=
EXTT4=
EXTT5=
EXTT6=
EXTT7=
EXTT8=
EXTT9=
EXTT10=
EXTT11=
EXTT12=
EXTT13=
EXTT14=
EXTT15=
EXTT16=
EXTT17=
EXTT18=
EXTT19=
PLAYORDER=
